<svg width="432" height="243" fill="none" xmlns="http://www.w3.org/2000/svg"><mask id="a" style="mask-type:luminance" maskUnits="userSpaceOnUse" x="0" y="0" width="432" height="243"><path fill="#fff" d="M0 0h432v243H0z"/></mask><g mask="url(#a)"><path fill-rule="evenodd" clip-rule="evenodd" d="m17.765 130.981-1.46 2.066c-5.721 1.361-7.489 5.619-7.88 9.351l-.049.569-.017.281-.02.552-.005.537-2.428 3.435 2.88 2.026 22.527.336 68.778-.67 18.101-2.15 12.19-.071-4.766-16.262H17.766z" fill="url(#b)"/><path fill-rule="evenodd" clip-rule="evenodd" d="M.304 157.009h150.243c.199 0 .359-.16.359-.358v-.243c0-.197-.16-.164-.359-.164H.304c-.199 0-.36.16-.36.358v-.144c0 .198.161.551.36.551z" fill="#DBDBDB"/><path fill-rule="evenodd" clip-rule="evenodd" d="m87.73 110.169-2.452.006-1.242.024-1.148.04-.848.039-1.37.083-.964.073-.991.09c-2.17.213-4.459.554-6.381 1.097l-.699.237c-1.862.497-3.772 1.344-5.584 2.331l-.77.43-.757.444-.739.454-.719.46-.697.462-1 .689-.63.452-.889.657-.81.621-.723.573-.815.666-1.233 1.064-5.013.563-5.475.582-2.824.288-3.744.366-3.096.288-3.25.285-2.388.196-3.483.259-2.217.146-1.416.081-.687.036c-1.784.123-3.217.349-4.356.61l-.732.183-.643.189-.234.077-.43.152-.378.149-.33.144-.283.136-.24.126-.28.165-.273.188-.063.052-.083-.096c-.168-.174-.592-.533-1.316-.626l-.605 1.136-.363.716-.267.555-.25.488-.278.51-.296.515-.303.504-.3.476-.425.626-.25.335c-.194.246-.348.403-.436.429-.032.009-.128-.043-.246-.123l-.256-.189-.107-.087-.188-.166c-.08-.076-.132-.137-.134-.165l-.002-.218.027-.317a6.84 6.84 0 0 1 .06-.4l-.367.252-.403.295-.285.223-.295.245-.303.269-.155.145-.312.308-.157.165-.315.351c-1.844 2.138-3.682 5.83-3.644 12.474l.006.709.01.095.046.179.056.139.083.153c.36.576 1.363 1.344 4.118 1.62l.387.035 28.099.381 61.197-1.126-.076-.481-.05-.403-.07-.697-.042-.627-.02-.462-.01-.492v-.52c.003-.178.008-.359.015-.545l.04-.709.07-.735c.045-.397.105-.803.181-1.213l.128-.617c.776-3.402 2.803-6.905 7.7-7.983 6.574-1.447 12.422 1.14 16.806 4.334l.68.508.814.646.774.651.59.52.562.517.535.511.747.747.462.481.636.689.566.642.494.583.542.669.483.628.302.415 18.019-3.151a7.25 7.25 0 0 0 5.161-4.412c-.594-.369-.921-1.091-.926-1.881l.009-.239-.17-5.823a1.25 1.25 0 0 1 1.091-1.142l.162-.01h.732c-.072-1.785-.711-2.999-3.174-3.657l-.949-.246-.964-.238-.977-.229-1.479-.328-1.488-.307-1.486-.289-1.472-.269-2.396-.407-2.278-.354-1.704-.246-2.3-.308-1.624-.2-2.849-.314-6.85-3.446-.749-.296-1.705-.629-1.324-.457-1.237-.408-1.387-.436-1.134-.341-1.208-.347-1.28-.352-1.348-.352-.935-.234-.962-.231-1.492-.339-1.027-.22-1.049-.215-1.072-.207-1.094-.198-1.114-.19-.564-.091-1.143-.174-1.16-.162-1.176-.149-1.192-.135-1.206-.12-.608-.054-1.226-.096-1.237-.078a76.73 76.73 0 0 0-3.77-.118z" fill="#F60"/><path fill-rule="evenodd" clip-rule="evenodd" d="M100.094 145.486c-.037-6.159 4.942-11.181 11.122-11.218 6.18-.037 11.219 4.925 11.256 11.084.038 6.158-4.942 11.181-11.122 11.217-6.18.037-11.219-4.925-11.256-11.083z" fill="#1E1F24"/><path fill-rule="evenodd" clip-rule="evenodd" d="M111.329 153.254c-4.235.025-7.689-3.376-7.715-7.596-.025-4.221 3.387-7.663 7.623-7.688 4.235-.026 7.689 3.375 7.714 7.596.026 4.22-3.387 7.662-7.622 7.688z" fill="#fff"/><path d="M110.87 139.543c-2.56.351-4.682 2.034-5.446 4.335-.853 2.571.362 4.79.576 5.167M111.647 151.829c2.56-.351 4.713-2.024 5.446-4.335 1.183-3.727-1.728-6.464-1.728-6.464M21.606 151.693c2.56-.35 4.714-2.023 5.446-4.334 1.183-3.728-1.728-6.464-1.728-6.464" stroke="#1E1F24" stroke-width=".51" stroke-linecap="round" stroke-linejoin="round"/><path fill-rule="evenodd" clip-rule="evenodd" d="m98.163 112.531-1.175-.148.175 1.182.155 1.13.137 1.076.12 1.019.15 1.411.118 1.26.089 1.098.08 1.191.743-.093c.114-.016.223-.032.327-.049l1.697-.276 1.029-.18.953-.176.88-.173.813-.172.751-.169.693-.169.639-.168.59-.168.547-.168.507-.17.472-.171.442-.173.417-.175.587-.27.373-.185.364-.189.538-.293c1.198-.665.369-1.964-.333-2.269-3.943-1.714-8.414-2.764-12.878-3.363zM95.091 112.188l-.028-.004c-4.296-.389-8.467-.401-12.025-.23l-1.23.067-1.173.081-1.114.092-1.048.102-.978.109-.903.115c-.288.039-.563.078-.824.118-1.838.281-3.648.71-5.32 1.506-1.53.729-3.447 1.732-4.938 2.804-.852.612-1.597 1.301-2.305 1.986l-1.044 1.012c-.517.494-1.034.961-1.58 1.368-.605.451-.277 1.39.484 1.389l6.176-.024 6.362-.055 4.159-.057 4.103-.075 4.036-.099 2.326-.072 2.216-.082 2.075-.094 1.905-.104 1.16-.077c.186-.013.367-.027.544-.041l-.123-1.363-.158-1.594-.319-2.963-.324-2.855-.112-.96z" fill="#fff"/><path fill-rule="evenodd" clip-rule="evenodd" d="m86.047 118.723-1.01-.213-3.302-.735-1.253-.26-.87-.167a56.175 56.175 0 0 0-.903-.158l-.941-.148c-.64-.095-1.31-.182-2.013-.258l-1.08-.104a44.41 44.41 0 0 0-.562-.045l-1.166-.075a66.875 66.875 0 0 0-6.853.009l-4.025 2.862-1.098.79-.975.714c-.604.451.308 1.769 1.07 1.768l6.175-.024 6.362-.055 4.159-.057 4.103-.075 4.036-.099 2.326-.072 2.216-.082 2.075-.094 1.905-.104 1.16-.077c.186-.013.367-.027.544-.041l-.109-1.21-.138-1.406c-4.045.37-6.967-.002-9.833-.584zM111.041 115.894l-1.548.476-.748.223-1.447.417-1.382.378c-.676.181-1.329.347-1.96.5l-1.234.29-.596.132-1.153.24a53.417 53.417 0 0 1-3.165.536l.11 1.291.095 1.373.742-.093c.114-.016.223-.032.327-.049l1.697-.276 1.029-.179.953-.177.88-.173.813-.172.751-.169.693-.169.639-.168.59-.168.547-.168.507-.17.472-.171.442-.173.417-.175.587-.27.373-.184.364-.189.538-.294c1.198-.665.369-1.964-.333-2.269z" fill="#EDEDED"/><path d="M58.062 124.512c-1.986 5.958-2.648 9.484-2.648 19.089M90.319 143.053c1.556-6.019 2.525-8.232 5.16-12.286 0 0 .953-2.728 1.574-6.984" stroke="#EDEDED" stroke-width=".51" stroke-linecap="round"/><path fill-rule="evenodd" clip-rule="evenodd" d="M49.26 144.996c3.244 0 8.196-.075 8.196-.075l34.334-.925s2.235-9.243 5.588-12.125c10.861-9.336 35.083 4.488 41.894 7.422l8.609 1.793-14.782 6.311c-2.109.62-5.64.503-6.666-1.068-2.753-4.218-7.522-10.888-18.997-10.615-10.762.256-11.097 12.038-11.097 12.038l-61.06 1.162-28.036-.393c-3.86-.316-4.555-1.579-4.67-2.148a9.873 9.873 0 0 1-.017-.282c-.3-14.346 6.1-16.141 7.292-16.747 3.195-1.168 6.127-1.668 8.826-1.668 15.9-.002 23.793 17.32 30.586 17.32z" fill="url(#c)"/><path fill-rule="evenodd" clip-rule="evenodd" d="M38.643 149.772s-6.445-18.949-20.853-16.999c-12.667 1.714-8.948 15.929-8.948 15.929l29.8 1.07z" fill="#3B3B3B"/><path fill-rule="evenodd" clip-rule="evenodd" d="M10.22 145.631c-.038-6.112 4.929-11.096 11.092-11.133 6.164-.037 11.19 4.888 11.228 11 .037 6.112-4.93 11.097-11.094 11.133-6.163.037-11.19-4.888-11.227-11z" fill="#1E1F24"/><path fill-rule="evenodd" clip-rule="evenodd" d="M21.425 153.149c-4.224.025-7.669-3.35-7.694-7.539-.026-4.189 3.378-7.605 7.602-7.63 4.225-.025 7.67 3.35 7.695 7.539.025 4.189-3.378 7.605-7.603 7.63z" fill="#fff"/><path d="M20.968 139.542c-2.553.348-4.67 2.018-5.432 4.302-.851 2.551.361 4.754.575 5.128M22.053 151.869c2.553-.348 4.508-2.008 5.239-4.301 1.18-3.7-1.53-6.416-1.53-6.416" stroke="#1E1F24" stroke-width=".51" stroke-linecap="round" stroke-linejoin="round"/><path fill-rule="evenodd" clip-rule="evenodd" d="M92.314 126.304h-6.266v-.911h6.266v.911z" fill="#fff"/><path fill-rule="evenodd" clip-rule="evenodd" d="M65.694 120.598v2.389a.33.33 0 0 1-.113.248l-.453.397a.336.336 0 0 1-.239.083l-4.204-.222a1.568 1.568 0 0 1-1.492-1.56v-.354c0-.103.048-.2.13-.262l1.06-.814a.343.343 0 0 1 .14-.063l4.005-.785a.968.968 0 0 1 1.166.943z" fill="#3B3B3B"/><g><path fill-rule="evenodd" clip-rule="evenodd" d="M304.612 158.109H173.567a.281.281 0 0 1-.28-.282v-.027a.28.28 0 0 1 .28-.282h131.045a.28.28 0 0 1 .279.282v.027a.281.281 0 0 1-.279.282z" fill="#DBDBDB"/><path fill-rule="evenodd" clip-rule="evenodd" d="m305.243 142.7-6.322 7.685-111.977.697h-4.927l-1.989-2.411 5.185-23.78 65.048-3.435 36.115-4.182 18.867 25.426z" fill="#3B3B3B"/><path fill-rule="evenodd" clip-rule="evenodd" d="M275.94 145.696c0-6.653 5.356-12.047 11.962-12.047s11.962 5.394 11.962 12.047c0 6.653-5.356 12.046-11.962 12.046s-11.962-5.393-11.962-12.046z" fill="#1E1F24"/><path fill-rule="evenodd" clip-rule="evenodd" d="M278.403 145.696c0-5.192 4.253-9.401 9.499-9.401s9.499 4.209 9.499 9.401-4.253 9.401-9.499 9.401-9.499-4.209-9.499-9.401z" fill="#fff"/><path d="M286.135 151.973c2.332.659 4.879-.043 6.442-1.875 2.312-2.71 1.709-5.364 1.531-5.91M289.594 139.41c-2.333-.659-4.597.114-6.284 1.83-2.19 2.226-1.868 5.409-1.689 5.955" stroke="#1E1F24" stroke-width=".51" stroke-linecap="round" stroke-linejoin="round"/><path fill-rule="evenodd" clip-rule="evenodd" d="M301.329 147.189s5.18-.804 7.475-5.529l-.498-2.211s.998-4.725.498-5.63c-.498-.905-2.625-3.921-2.625-3.921s-.474-9.65-.643-10.253c-.17-.604-2.167-1.307-2.167-1.307l-6.958-10.539a3.052 3.052 0 0 0-1.759-1.27c-1.024-.273-2.606-.652-4.16-.858-4.027-.534-36.236-3.915-49.113-.698-12.878 3.217-26.998 12.679-26.998 12.679s-18.396 2.055-34.102 4.761c-.501.086-4.34 1.595-4.34 1.595l-3.171 3.25a8.723 8.723 0 0 0-1.134 3.452c-.139 1.314-.236 3.266-.096 5.924.049.932.434 7.419.553 9.424.02.339.283.613.619.644l4.806.448s1.398 1.609 1.797 1.709c.4.101 5.994 0 5.994 0s-.827-16.297 13.028-17.138c13.823-.839 15.324 10.572 15.369 15.189.01 1.048 2.474 1.887 3.514 1.882l53.858-.279c1.847-.009 3.376-1.433 3.549-3.286.438-4.692 2.591-12.83 12.218-13.329 14.246-.739 14.486 15.291 14.486 15.291z" fill="#F60"/><path fill-rule="evenodd" clip-rule="evenodd" d="m256.315 106.147-3.732 12.063-36.331 1.218s13.103-8.753 23.001-11.509c7.065-1.967 17.062-1.772 17.062-1.772zM260.538 106.092l-1.143 11.671s21.414-1.186 24.492-2.577c3.176-1.435 2.573-3.351.099-5.038-2.473-1.686-6.451-2.482-11.022-3.213-5.384-.86-12.426-.843-12.426-.843z" fill="#fff"/><path fill-rule="evenodd" clip-rule="evenodd" d="M228.382 112.381c1.793.685 3.77 1.466 5.625 1.941 4.537 1.159 9.275 1.612 13.934 1.742 1.785.049 3.558-.003 5.335-.097l-.694 2.243-36.33 1.217s5.626-3.824 12.13-7.046zM261.404 115.445c1.872-.192 3.682-.605 5.517-1.054 1.524-.372 3.057-.7 4.571-1.133 2.96-.849 6.057-2.128 8.096-4.907.016-.021.03-.044.044-.066 1.717.483 3.2 1.076 4.354 1.863 2.474 1.687 3.077 3.603-.099 5.038-3.078 1.391-24.492 2.577-24.492 2.577l.215-2.206c.555-.04 1.24-.055 1.794-.112z" fill="#EDEDED"/><path d="m258.57 106.092-2.338 11.284-1.134 1.898 1.452 26.486" stroke="#fff" stroke-width=".51" stroke-linecap="round"/><path fill-rule="evenodd" clip-rule="evenodd" d="M245.37 122.929h6.649v-.997h-6.649v.997zM279.921 122.929h6.649v-.997h-6.649v.997z" fill="#fff"/><path d="m286.756 107.571 2.177 8.983 1.134 1.898-1.452 11.204" stroke="#fff" stroke-width=".51" stroke-linecap="round"/></g><g><path d="m334.993 157.2 152.69-.49" stroke="#DBDBDB" stroke-width=".704" stroke-linecap="round"/><path fill-rule="evenodd" clip-rule="evenodd" d="m486.365 139.533-1.944 6.974-6.611 1.316-107.85 1.71-8.654-.693-17.79.562-6.481-2.237 4.667-17.765 72.591-3.289 69.48-.527 2.592 13.949z" fill="#3B3B3B"/><path fill-rule="evenodd" clip-rule="evenodd" d="M344.049 143.723c0-6.961 5.692-12.604 12.713-12.604 7.022 0 12.714 5.643 12.714 12.604 0 6.961-5.692 12.603-12.714 12.603-7.021 0-12.713-5.642-12.713-12.603z" fill="#1E1F24"/><path fill-rule="evenodd" clip-rule="evenodd" d="M346.666 143.723c0-5.432 4.52-9.836 10.096-9.836 5.576 0 10.096 4.404 10.096 9.836s-4.52 9.836-10.096 9.836c-5.576 0-10.096-4.404-10.096-9.836z" fill="#fff"/><path d="M354.884 150.29c2.479.69 5.185-.045 6.847-1.962 2.458-2.835 1.817-5.612 1.627-6.182M358.56 137.146c-2.479-.69-4.885.119-6.679 1.914-2.328 2.33-1.985 5.66-1.795 6.231" stroke="#1E1F24" stroke-width=".51" stroke-linecap="round" stroke-linejoin="round"/><path fill-rule="evenodd" clip-rule="evenodd" d="m331.066 126.571 1.095-.096 1.972-.194 3.74-.408.082.104.121.174c.252.386.626 1.131.448 1.938-.157.703-1.109 1.548-1.846 2.111l-.346.256-.541.37-5.77.41-.01.078-2.13 1.535-.194 4.799.775 7.678 3.098 1.919 10.455.192.009-.76.033-1.116.05-1.063.05-.786.065-.828c.024-.281.052-.567.082-.854l.102-.862c.225-1.723.579-3.401 1.137-4.437l.48-.876.329-.56.24-.384.259-.389.28-.393.303-.394c1.89-2.362 5.126-4.676 11.619-4.853 9.116-.248 14.974 6.654 14.78 17.979l2.169-.014 5.251-.068 17.721-.296 50.372-.965.113-1.295.141-1.95.079-1.252.03-.318.046-.349.062-.379.079-.405.047-.212.109-.439.129-.46.152-.476.175-.49c.094-.248.198-.5.311-.755l.24-.513c1.739-3.522 5.459-7.349 13.066-7.513 7.046-.152 10.802 3.738 12.772 7.387l.296.573.268.566c.042.094.084.186.124.279l.228.547.202.53.093.257.243.737.135.456.167.623.126.537.113.564.078.486.193 2.88 9.794-1.555.234-.058.157-.05.181-.067.201-.087.22-.109c.076-.04.154-.084.234-.133l.247-.16.257-.188c1.303-1.022 2.871-3.226 3.176-7.958l-3.709-4.659.991-14.212-1.235-2.333-.919-1.685-1.101-1.966-1.026-1.779-.874-1.472a184.57 184.57 0 0 0-.224-.371l-.492-.803-.383-.615-.774-1.215c-1.296-1.998-2.611-3.844-3.793-5.168l-4.157-.372-4.215-.36-2.843-.23-2.873-.221-2.901-.209-2.932-.194c-.983-.062-1.971-.121-2.964-.178l-2.996-.16c-14.059-.7-29.217-.747-45.952.772l-.815.094c-.137.016-.276.034-.415.053l-.848.12-.871.139c-.147.025-.295.05-.444.077l-.906.169c-.306.06-.616.123-.93.19l-.954.211-.979.234-1.004.257-1.029.282-.524.15-1.067.319-1.094.344-1.121.372-1.147.4c-.774.275-1.566.57-2.376.884l-1.231.487-.625.255-1.273.534-1.301.565-1.331.598-.677.312-1.375.649-.699.337-1.42.701-1.451.737-1.482.774c-.749.396-1.51.807-2.282 1.231l-1.561.869-.793.45-1.609.928c-.271.158-.544.318-.818.48l-1.658.99c-.28.168-.56.338-.842.51l-1.709 1.053-1.743 1.096-.309.135-.611.254-.301.118-.587.22-.565.198-.79.256-.915.27-.557.149-.912.212-5.481 1.094-3.014.619-2.495.526-2.17.47-1.223.274-1.831.427-.937.233-.542.142-.673.192-.344.111-.696.27-.62.259-.67.294-.705.324-.361.172-.73.361c-.122.062-.245.124-.366.187l-.726.388c-1.792.986-3.384 2.085-3.784 2.978l-.107.248z" fill="#F60"/><path fill-rule="evenodd" clip-rule="evenodd" d="M466.943 99.095s3.5 5.273 3.848 6.837c.346 1.564-1.649 6.603-4.512 6.864-2.863.261-90.145 4.953-90.145 4.953s-7.548.087-8.155-.522c-.608-.608-.618-1.778 3.643-4.519 3.956-2.545 13.494-8.801 25.57-12.164 11.279-3.141 27.363-2.99 37.68-2.924 10.515.068 26.382.577 32.071 1.475z" fill="#fff"/><path fill-rule="evenodd" clip-rule="evenodd" d="M435.739 106.062c14.446-1.042 34.9 1.937 34.263 3.275-.802 1.685-2.127 3.314-3.723 3.459-2.863.261-90.144 4.953-90.144 4.953s-7.549.087-8.156-.522c-.607-.608-.435-2.173 3.643-4.519 4.815 1.217 9.979 1.826 25.465.783 15.487-1.043 24.207-6.386 38.652-7.429z" fill="#EDEDED"/><path d="m415.09 116.532-.434 4.692.196 15.923-1.692 6.712M376.308 118.444s-1.822 1.303-2.169 6.517c-.347 5.213 0 16.509 0 16.509s.26 2.085.781 3.215" stroke="#fff" stroke-width=".51" stroke-linecap="round" stroke-linejoin="round"/><path d="M415.047 114.534v-15.77M376.655 116.75l1.041-6.387" stroke="#3B3B3B" stroke-width=".51" stroke-linecap="round" stroke-linejoin="round"/><path fill-rule="evenodd" clip-rule="evenodd" d="M380.754 120.138c-1.561 0-2.472-1.042-2.472-1.042l.629-2.824s.672-2.846 2.364-3.237c1.692-.391 3.123-.065 3.123-.065s2.082.782 1.952 2.541c-.13 1.76-.715 2.086-1.691 2.281-.976.196-2.278.131-2.278.131l-1.627 2.215z" fill="#3B3B3B"/><path fill-rule="evenodd" clip-rule="evenodd" d="M403.428 120.115h8.427v-1.368h-8.427v1.368z" fill="#EDEDED"/></g><g fill-rule="evenodd" clip-rule="evenodd"><path d="M177.921 49.892a14.112 14.112 0 0 0-2.763-.282c-6.638 0-11.461 4.614-11.461 11.58 0 5.373 3.207 9.95 7.716 11.767 2.295-7.655 3.866-15.508 6.508-23.065zM233.197 61.921c.853.33 1.687.738 2.479 1.242 5.588 3.55 7.135 10.015 3.342 15.88-2.926 4.522-8.117 6.66-12.904 5.777 2.237-7.673 5.192-15.123 7.083-22.899z" fill="#E68F7D"/><path d="M211.139 12.35c22.428 3.14 24.328 20.337 22.195 37.946l-.195 1.532-.213 1.532-.112.766-.236 1.528-.247 1.523-.388 2.272-.808 4.47-.666 3.618-.502 2.802-.233 1.365-.219 1.338c-2.036 12.778-7.805 22.788-15.46 28.763l-1.54 38.681-.517.492-.809.736-.889.775-.253.215-.814.676-.641.516-.337.266-.709.547-.371.28-.772.568c-.132.095-.265.191-.401.287l-.829.578c-.282.194-.571.387-.864.58l-.897.576c-4.56 2.863-10.241 5.413-15.604 5.004-6.072-.463-8.968-2.782-10.349-4.89l-.229-.369a8.698 8.698 0 0 1-.288-.54l-.158-.347-.135-.334-.111-.318-.092-.3-.074-.279-.057-.256-.043-.23-.058-.444-.014-.201-.54-44.707c-6.778-7.145-9.689-18.762-6.137-35.304l.935-4.167.803-3.484.511-2.14.537-2.168.374-1.456.388-1.463.402-1.467.207-.734.427-1.468c.145-.49.293-.978.444-1.466l.463-1.463c5.582-17.269 15.209-33.165 36.125-30.237z" fill="#EDA994"/><path d="M228.474 37.228s3.49 5.75 3.485 14.342c-.005 8.59-3.258 25.66-3.258 25.66s29.46-27.708 13.801-56.991C232.196.968 213.21-.811 201.773.745c-5.743.782-10.82 3.702-15.103 7.62l-1.242 1.734.297-4.285s-7.928 2.982-9.614 8.996c-1.686 6.014 1.038 8.331 1.038 8.331s-2.513 3.64-2.993 5.376c-2.618 9.463-2.999 30.927-2.999 30.927l15.235-26.204s4.38 2.429 12.339 1.764c11.253-.94 18.49-5.28 18.49-5.28s-2.972 4.785-8.047 6.385c-5.075 1.6-8.324 1.635-8.324 1.635s11.188 5.131 18.927 3.328c7.74-1.804 8.697-3.844 8.697-3.844z" fill="#1E1F24"/><path d="M195.429 81.786c-.101 0-.199-.006-.292-.02-.721-.112-2.919-.45-2.919-3.158 0-1.588 1.621-3.731 3.188-5.805.697-.92 1.355-1.79 1.76-2.48 2.362-4.022 4.051-11.023 4.068-11.094a.569.569 0 0 1 .688-.423.574.574 0 0 1 .424.691c-.07.294-1.745 7.237-4.196 11.408-.438.748-1.116 1.643-1.833 2.592-1.316 1.742-2.955 3.91-2.955 5.11 0 1.43.779 1.844 1.949 2.024.536.084 1.756-.393 2.453-.757a.573.573 0 0 1 .527 1.019c-.188.098-1.747.893-2.862.893zM188.806 63.796c0 1.426-1.172 2.582-2.619 2.582-1.446 0-2.619-1.156-2.619-2.582s1.173-2.582 2.619-2.582c1.447 0 2.619 1.156 2.619 2.582zM215.953 72.417c0 1.486-1.222 2.692-2.729 2.692-1.508 0-2.73-1.206-2.73-2.692 0-1.487 1.222-2.692 2.73-2.692 1.507 0 2.729 1.206 2.729 2.692zM202.764 89.635c-3.228 0-7.224-.264-10.444-1.303-4.074-1.315-9.805-6.231-10.047-6.44a.575.575 0 0 1-.06-.808.57.57 0 0 1 .806-.062c.057.05 5.798 4.974 9.651 6.217 6.169 1.992 15.713.985 15.808.976a.573.573 0 0 1 .123 1.14c-.199.022-2.642.28-5.837.28z" fill="#1E1F24"/><path d="m172.651 128.791-10.032 5.33L184.771 244.5H201l18.863-112.304-5.754-.148-20.065 10.363-16.967-2.369-4.426-11.251z" fill="#EDECEC"/><path d="M187.5 244.5h-46.327s-.095-36.066-.095-39.915v-3.849l-37.77 37.601s-12.098 4.737-17.41.296c-5.31-4.441-9.147-26.646 7.672-48.555 16.82-21.909 47.803-49.444 59.311-53.885 11.507-4.441 18.589-7.994 18.589-7.994L187.5 244.5zM195.173 244.5H241.5s1.468-33.125 1.083-36.954c-.341-3.405 0-4.441 0-4.441l31.278 35.232s13.869 5.625 19.18 1.184c5.312-4.441 2.066-34.344-14.753-56.253-16.82-21.909-35.409-38.785-47.756-46.335-10.528-6.438-18.59-7.994-18.59-7.994L195.173 244.5z" fill="#0996B3"/><path d="m216.346 194.383-49.139-2.397a3.53 3.53 0 0 1-3.349-3.703l3.178-65.61a3.53 3.53 0 0 1 3.691-3.36l49.139 2.396a3.532 3.532 0 0 1 3.349 3.704l-3.178 65.61a3.53 3.53 0 0 1-3.691 3.36z" fill="#1E1F24"/><path d="M131.347 179.572s19.402-28.132 23.02-30.898c3.618-2.766 11.866-8.736 11.866-8.736l-.484 9.299s-1.559.499-2.123 1.706c-.563 1.207-1.183 3.402-1.183 3.402l25.367 1.463s1.928.855 1.568 2.817c-.359 1.962-5.848 2.885-5.848 2.885l-13.659 1.196 18.577 3.55s2.45.436 1.828 2.584c-.351 1.212-6.341 2.857-6.341 2.857l-.391.514a8.443 8.443 0 0 1-6.385 3.322l-7.545.296s2.885 1.406 4.362 1.491l6.157.355s1.119 2.048-.662 2.937c-.878.438-4.878.877-8.709 1.209a30.185 30.185 0 0 1-14.417-2.281l-3.416-1.45-7.131 8.017s-4.891 3.436-8.979 1.465c-4.088-1.971-5.472-8-5.472-8zM222.025 148.698s8.702 3.893 12.405 9.029c3.703 5.136 16.082 30.021 16.082 30.021s2.632 1.739-1.283 3.531c-3.915 1.791-9.361-3.059-9.361-3.059l-3.12-6.965s-7.869 1.846-16.039-.287c-8.171-2.133-16.098-6.732-16.098-6.732s-.686-1.148-.145-2.113c0 0-3.521-.247-4.123-1.564-1.34-2.93 1.183-4.03 1.183-4.03l11.629-.424-15.539-2.988s-1.091-.425-1.037-1.537c.054-1.112.372-2.583 1.869-2.882 1.496-.299 20.21.862 20.21.862l-15.461-9.674s-1.929-1.287-.325-3.485c1.501-2.058 18.773 6.955 18.773 6.955l.38-4.658z" fill="#EDA994"/><path d="m231.296 187.944 9.491 9.387s8.219-2.954 11.79-6.537c5.275-5.292 6.826-13.231 6.826-13.231l-9.534-8.503a1.748 1.748 0 0 0-2.683.429c-1.33 2.302-3.752 6.197-6.244 8.697-2.638 2.647-7.067 5.763-9.425 7.354a1.56 1.56 0 0 0-.221 2.404zM129.145 171.884l8.542-7.218c1.299-1.099 3.232-.492 3.786 1.192.89 2.702 2.291 6.327 3.974 8.473 1.867 2.381 5.458 4.635 7.827 5.962 1.144.64 1.409 2.263.542 3.272l-11.336 10.362s-6.186-3.087-9.123-8.89c-3.23-6.382-4.649-13.8-4.212-13.153z" fill="#EDECEC"/><path d="M96.743 195.979c-8.852 8.735-14.016 13.175-14.901 19.985l14.9-19.985z" fill="#107CA3"/><path d="M96.405 197.65c-8.873 8.725-14.05 13.162-14.936 19.964-.888 6.803 1.699 16.161 4.288 18.633 3.253 3.105 13.605 1.627 17.007.591 2.634-.801 26.648-25.024 37.271-36.727-2.081-.905-4.038-2.069-5.799-3.558-6.813-5.762-8.738-16.416-6.998-25.374-6.951 4.141-23.68 19.437-30.833 26.471z" fill="url(#d)"/><path d="M146.048 193.334s-.45 1.311-.3 3.061c.15 1.749-39.491 41.252-42.945 42.273-3.453 1.02-13.965 2.478-17.268-.583-2.63-2.437-5.255-11.662-4.354-18.367.9-6.706 6.156-11.079 15.166-19.679 8.629-8.238 30.631-29.008 32.283-29.008a1.92 1.92 0 0 1 1.952 1.458s2.853 10.422 6.457 14.066c3.604 3.644 9.009 6.779 9.009 6.779zM240.733 194.768s-2.209 1.038-1.915 3.116c.231 1.625 32.557 41.237 35.615 42.487 3.06 1.25 12.514 3.521 15.792.96 2.61-2.038 5.811-10.394 5.576-16.711-.235-6.318-4.643-10.844-12.104-19.631-7.146-8.417-24.672-30.708-26.178-30.852-1.506-.143-1.325.891-1.325.891s-3.317 10.28-6.921 13.358c-3.604 3.077-8.54 6.382-8.54 6.382z" fill="#0996B3"/></g></g><defs><linearGradient id="b" x1="143.287" y1="119.025" x2="143.268" y2="141.81" gradientUnits="userSpaceOnUse"><stop stop-color="#333"/><stop offset="1" stop-color="#3B3B3B"/></linearGradient><linearGradient id="c" x1="214.101" y1="116.991" x2="214.058" y2="157.213" gradientUnits="userSpaceOnUse"><stop stop-color="#FF8500"/><stop offset="1" stop-color="#F60"/></linearGradient><linearGradient id="d" x1="81.291" y1="238.113" x2="140.035" y2="238.113" gradientUnits="userSpaceOnUse"><stop stop-color="#107CA3"/><stop offset="1" stop-color="#0895B1"/></linearGradient></defs></svg>