<svg width="124" height="90" viewBox="0 0 124 90" fill="none" xmlns="http://www.w3.org/2000/svg">
<g clip-path="url(#clip0_5537_169435)">
<path d="M4 0H114C116.2 0 118 1.8 118 4V80C118 82.2 116.2 84 114 84H4C1.8 84 0 82.2 0 80V4C0 1.8 1.8 0 4 0Z" fill="white"/>
<path d="M120 6H118V80C118 82.2 116.2 84 114 84H6V86C6 88.2 7.8 90 10 90H120C122.2 90 124 88.2 124 86V10C124 7.8 122.2 6 120 6Z" fill="#DCDDE0"/>
<path d="M57 47C55.9 47 55 47.9 55 49V54C55 55.1 55.9 56 57 56C58.1 56 59 55.1 59 54V49C59 47.9 58.1 47 57 47Z" fill="#5A5E66"/>
<path d="M47 26C47 20.6 51.5 16 57 16C62.5 16 67 20.5 67 26V33H47V26ZM59 61H45C43.2 61 42 59.8 42 58V40C42 38.3 43.2 37.1 45 37H69C70.6 37.1 71.9 38.3 72 40V41C73.2 40.3 74.6 40 76 40C76 36.8 74 34.3 71 33V26C71.2 18.4 64.9 12 57 12C49.1 12 42.8 18.4 43 26V33C40 34.3 38 36.9 38 40V58C38 62 41 65 45 65H59C59.1 63.9 59 62.7 59 62C59 61.3 59 61.2 59 61Z" fill="#5A5E66"/>
<path d="M79 43.5C70.2 43.5 63 50.7 63 59.5C63 68.3 70.2 75.5 79 75.5C87.8 75.5 95 68.3 95 59.5C95 50.7 87.8 43.5 79 43.5ZM78.7 70.1C77.1 70.1 76.1 69.2 76.1 67.7C76.1 66.2 77.2 65.3 78.7 65.3C80.3 65.3 81.3 66.2 81.3 67.7C81.3 69.2 80.2 70.1 78.7 70.1ZM83.5 59.2C82.5 60.1 81.4 60.7 80.9 61.2C80.6 61.5 80.6 61.7 80.6 62.2V63.5H76.8V61.7C76.8 60 77.4 59.1 78.6 58.2L80.3 57C80.9 56.6 81.5 56 81.5 55.3C81.5 54.1 80.5 53.5 78.8 53.5C77.1 53.5 75.7 54.3 74.8 55.2L73.5 52C74.1 51.4 75.9 49.8 79.5 49.8C83.1 49.8 85.5 52.1 85.5 54.8C85.5 57.1 84.6 58.2 83.5 59.2Z" fill="#5A5E66"/>
</g>
<defs>
<clipPath id="clip0_5537_169435">
<rect width="124" height="90" fill="white"/>
</clipPath>
</defs>
</svg>
